<svg 
          width="16" 
          height="14" fill="none" 
          xmlns="http://www.w3.org/2000/svg">
          <path d="M 12.642999649047852 14 C 13.978999614715576 14 15 12.84500002861023 15 11.5 L 15 4 L 1 4 L 1 11.5 C 1 12.84500002861023 2.0210001468658447 14 3.3570001125335693 14 L 12.642999649047852 14 Z M 5.5 6 L 10.5 6 C 10.632608249783516 6 10.75978558510542 6.052678517997265 10.853553771972656 6.146446704864502 C 10.947321958839893 6.240214891731739 11 6.367391750216484 11 6.5 C 11 6.632608249783516 10.947321958839893 6.759785108268261 10.853553771972656 6.853553295135498 C 10.75978558510542 6.947321482002735 10.632608249783516 7 10.5 7 L 5.5 7 C 5.367391750216484 7 5.240214891731739 6.947321482002735 5.146446704864502 6.853553295135498 C 5.052678517997265 6.759785108268261 5 6.632608249783516 5 6.5 C 5 6.367391750216484 5.052678517997265 6.240214891731739 5.146446704864502 6.146446704864502 C 5.240214891731739 6.052678517997265 5.367391750216484 6 5.5 6 L 5.5 6 Z M 0.800000011920929 0 C 0.5878268182277679 2.220446049250313e-16 0.384343683719635 0.08428545296192169 0.23431457579135895 0.23431456089019775 C 0.08428546786308289 0.3843436688184738 2.220446049250313e-16 0.5878267586231232 0 0.7999999523162842 L 1.6653345369377348e-16 2 C 2.7755575615628914e-16 2.212173193693161 0.08428546786308289 2.4156564027071 0.23431457579135895 2.565685510635376 C 0.384343683719635 2.715714618563652 0.5878268182277679 2.799999952316284 0.800000011920929 2.799999952316284 L 15.199999809265137 2.799999952316284 C 15.412173002958298 2.799999952316284 15.615655973553658 2.715714618563652 15.765685081481934 2.565685510635376 C 15.91571418941021 2.4156564027071 16 2.212173193693161 16 2 L 16 0.7999999523162842 C 16 0.5878267586231232 15.91571418941021 0.3843436688184738 15.765685081481934 0.23431456089019775 C 15.615655973553658 0.08428545296192169 15.412173002958298 0 15.199999809265137 0 L 0.800000011920929 0 Z" fill="rgb(255,255,255)"/>
        </svg>