<svg 
          width="32" 
          height="41" fill="none" 
          xmlns="http://www.w3.org/2000/svg">
          <path d="M 32 41 L 0 41 L 0 37.095237731933594 C 0 34.50621962547302 1.0535683631896973 32.023239970207214 2.9289321899414062 30.192527770996094 C 4.804296016693115 28.361815571784973 7.347835063934326 27.333332061767578 10 27.333332061767578 L 22 27.333332061767578 C 24.652164936065674 27.33333206176758 27.195703983306885 28.361815571784973 29.071067810058594 30.192527770996094 C 30.946431636810303 32.023239970207214 32 34.50621962547302 32 37.095237731933594 L 32 41 Z M 16 23.428569793701172 C 14.424137473106384 23.428569816624247 12.86370587348938 23.12557077407837 11.407798767089844 22.53687286376953 C 9.951891660690308 21.948174953460693 8.629021048545837 21.085307598114014 7.514718055725098 19.997535705566406 C 6.400415062904358 18.9097638130188 5.51650196313858 17.61839187145233 4.913445472717285 16.1971492767334 C 4.31038898229599 14.775906682014465 4.0000000000000036 13.252626895904541 4 11.714284896850586 C 4.000000000000002 10.17594289779663 4.31038898229599 8.65266501903534 4.913445472717285 7.231422424316406 C 5.51650196313858 5.810179829597473 6.400415062904358 4.518806457519531 7.514718055725098 3.431034564971924 C 8.629021048545837 2.3432626724243164 9.951891660690308 1.4803946614265442 11.407798767089844 0.8916967511177063 C 12.86370587348938 0.3029988408088684 14.424137473106384 -2.2923080798501452e-8 16 1.3006673713869717e-15 C 19.182597875595093 4.6295249824287474e-8 22.234846353530884 1.234179973602295 24.48528289794922 3.431034564971924 C 26.735719442367554 5.627889156341553 28 8.607463359832764 28 11.714284896850586 C 28 14.821106433868408 26.735719442367554 17.800681114196777 24.48528289794922 19.997535705566406 C 22.234846353530884 22.194390296936035 19.182597875595093 23.428569747405923 16 23.428569793701172 Z" fill="rgb(194.45166260004044,173.34245771169662,217.8125050663948)"/>
        </svg>