<svg 
          width="13.666666984558105" 
          height="22.363636016845703" fill="none" 
          xmlns="http://www.w3.org/2000/svg">
          <path d="M 6.833333492279053 0 C 7.284393012178245 0 7.657165671247155 0.34317652394140125 7.716162138579668 0.7884248408965707 L 7.724295665773215 0.9122057126658977 L 7.724151704296921 10.884878220972395 L 12.77427052820754 10.885655494427434 C 13.434274653606778 10.885655494427434 13.85079460138842 11.586373549567467 13.585847130253818 12.175244576047893 L 13.528076515441997 12.284149355122686 L 7.587139479513511 21.93771860031767 C 7.237652149537901 22.50560883460824 6.429014835020204 22.50560883460824 6.079527505044593 21.93771860031767 L 0.13859029323724636 12.284149355122686 C -0.2352415962733151 11.676701078362985 0.19114211014100524 10.885655494427434 0.8923964563505664 10.885655494427434 L 5.941272946039837 10.884878220972395 L 5.9423713187848906 0.9122057126658977 C 5.9423713187848906 0.40840839886965974 6.341268574944345 0 6.833333492279053 0 Z M 11.158302364380358 12.70909399496385 L 6.8510472706377845 12.709890226308037 C 6.8451564529076565 12.71000788388293 6.839251804966419 12.710066771650721 6.833333492279053 12.710066771650721 L 6.818424296754777 12.708757492431484 L 2.5064637955000224 12.70909399496385 L 6.832976846975643 19.739159162355364 L 11.158302364380358 12.70909399496385 Z" fill="rgb(70.00000342726707,53.00000064074993,226.0000017285347)"/>
        </svg>