<svg 
          width="16" 
          height="16" fill="none" 
          xmlns="http://www.w3.org/2000/svg">
          <path d="M 8 16 C 3.5816001892089844 16 0 12.418399810791016 0 8 C 0 3.5816001892089844 3.5816001892089844 0 8 0 C 12.418399810791016 0 16 3.5816001892089844 16 8 C 16 12.418399810791016 12.418399810791016 16 8 16 Z M 8 14.4 C 9.697385597229005 14.399999999999997 11.325250911712647 13.725716495513918 12.525483703613283 12.525483703613283 C 13.725716495513918 11.325250911712647 14.399999999999997 9.697385597229005 14.4 8 C 14.399999999999997 6.302614402770996 13.725716495513918 4.674749469757081 12.525483703613283 3.4745166778564456 C 11.325250911712647 2.2742838859558105 9.697385597229005 1.6000000000000008 8 1.6 C 6.302614402770996 1.6000000000000014 4.674749469757081 2.2742838859558105 3.4745166778564456 3.4745166778564456 C 2.2742838859558105 4.674749469757081 1.6000000000000023 6.302614402770996 1.6 8 C 1.6000000000000014 9.697385597229005 2.2742838859558105 11.325250911712647 3.4745166778564456 12.525483703613283 C 4.674749469757081 13.725716495513918 6.302614402770996 14.399999999999997 8 14.4 L 8 14.4 Z M 5.218399810791016 4.087200164794922 L 11.912800598144532 10.781600189208985 C 11.601205515861512 11.218900060653688 11.218900060653688 11.601205515861512 10.781600189208985 11.912800598144532 L 4.087200164794922 5.218399810791016 C 4.398864102363587 4.781385374069215 4.781165027618409 4.399354791641235 5.218399810791016 4.088000106811523 L 5.218399810791016 4.087200164794922 Z" fill="rgb(255,255,255)"/>
        </svg>