<svg 
          width="224.58303833007812" 
          height="41.250003814697266" fill="none" 
          xmlns="http://www.w3.org/2000/svg">
          <path d="M 0 40.70000076293945 L 0 2.199998140335083 L 15.675000190734863 2.199998140335083 C 19.415001153945923 2.199998140335083 22.6783344745636 3.024998664855957 25.46500015258789 4.674999237060547 C 28.288334369659424 6.2883336544036865 30.47000229358673 8.543333053588867 32.01000213623047 11.4399995803833 C 33.58666813373566 14.336666107177734 34.375 17.673332691192627 34.375 21.44999885559082 C 34.375 25.263332843780518 33.58666813373566 28.618334770202637 32.01000213623047 31.51500129699707 C 30.47000229358673 34.375001668930054 28.306668043136597 36.630002617836 25.520002365112305 38.28000259399414 C 22.7333345413208 39.893336057662964 19.451667308807373 40.70000076293945 15.675000190734863 40.70000076293945 L 0 40.70000076293945 Z M 15.399999618530273 9.404999732971191 L 7.9200005531311035 9.404999732971191 L 7.9200005531311035 33.49500274658203 L 15.399999618530273 33.49500274658203 C 18.8100004196167 33.49500274658203 21.48666799068451 32.413331508636475 23.43000030517578 30.249998092651367 C 25.373334884643555 28.08666467666626 26.345001220703125 25.153332710266113 26.345001220703125 21.44999885559082 C 26.345001220703125 17.783332347869873 25.355000734329224 14.868332624435425 23.375 12.704999923706055 C 21.431666612625122 10.504999876022339 18.773333311080933 9.404999732971191 15.399999618530273 9.404999732971191 ZM 53.38953399658203 41.250003814697266 C 50.27286767959595 41.250003814697266 47.54120135307312 40.60833418369293 45.19453430175781 39.32500076293945 C 42.847867488861084 38.041667342185974 41.01453423500061 36.28166890144348 39.69453430175781 34.04500198364258 C 38.41120088100433 31.808335065841675 37.76953125 29.241665840148926 37.76953125 26.344999313354492 C 37.76953125 23.338331937789917 38.39286720752716 20.69833278656006 39.63953399658203 18.424999237060547 C 40.92286741733551 16.114999532699585 42.66453242301941 14.299998998641968 44.864532470703125 12.979999542236328 C 47.10119938850403 11.659999012947083 49.667866230010986 10.999999046325684 52.56453323364258 10.999999046325684 C 55.16786575317383 10.999999046325684 57.49619960784912 11.641665935516357 59.54953384399414 12.925000190734863 C 61.639533042907715 14.171666145324707 63.25286662578583 15.87666630744934 64.38953399658203 18.03999900817871 C 65.56286752223969 20.203332901000977 66.11287009716034 22.678333282470703 66.03953552246094 25.46500015258789 L 65.98453521728516 27.829999923706055 L 45.08453369140625 27.829999923706055 C 45.487867295742035 29.920000314712524 46.477864503860474 31.570002913475037 48.05453109741211 32.78000259399414 C 49.66786444187164 33.99000263214111 51.70286774635315 34.595001220703125 54.1595344543457 34.595001220703125 C 55.47953498363495 34.595001220703125 56.67119860649109 34.39333501458168 57.73453140258789 33.9900016784668 C 58.83453142642975 33.586668610572815 60.00786483287811 32.871666431427 61.25453186035156 31.844999313354492 L 64.88453674316406 36.90500259399414 C 63.30786967277527 38.298336029052734 61.4928662776947 39.38000148534775 59.43953323364258 40.150001525878906 C 57.422866344451904 40.883334934711456 55.406200885772705 41.250003814697266 53.38953399658203 41.250003814697266 Z M 52.61953353881836 17.489999771118164 C 48.476200103759766 17.489999771118164 45.982867419719696 19.35999846458435 45.13953399658203 23.099998474121094 L 58.88953399658203 23.099998474121094 L 58.88953399658203 22.880001068115234 C 58.779533229768276 21.30333399772644 58.11953413486481 20.019999146461487 56.9095344543457 19.029998779296875 C 55.73620092868805 18.003332257270813 54.30620038509369 17.489999771118164 52.61953353881836 17.489999771118164 ZM 80.55609893798828 41.250003814697266 C 77.8794322013855 41.250003814697266 75.49609780311584 40.810000360012054 73.40609741210938 39.93000030517578 C 71.31609749794006 39.05000025033951 69.6294332742691 37.803335785865784 68.34609985351562 36.19000244140625 L 73.07609558105469 32.17500305175781 C 74.17609560489655 33.38500273227692 75.42276000976562 34.26500242948532 76.81609344482422 34.81500244140625 C 78.20942687988281 35.328336000442505 79.62109386920929 35.58500289916992 81.05109405517578 35.58500289916992 C 82.18776035308838 35.58500289916992 83.10443413257599 35.328336000442505 83.80110168457031 34.81500244140625 C 84.49776810407639 34.30166918039322 84.84609985351562 33.586668848991394 84.84609985351562 32.67000198364258 C 84.84609985351562 31.86333531141281 84.51609462499619 31.221667379140854 83.85609436035156 30.7450008392334 C 83.19609409570694 30.30500105023384 81.61943221092224 29.754999577999115 79.1260986328125 29.094999313354492 C 75.42276549339294 28.14166569709778 72.80109322071075 26.8400000333786 71.26109313964844 25.190000534057617 C 69.90442633628845 23.72333312034607 69.2260971069336 21.908331632614136 69.2260971069336 19.744998931884766 C 69.2260971069336 18.02166485786438 69.73943138122559 16.51833188533783 70.76609802246094 15.23499870300293 C 71.79276490211487 13.91499924659729 73.14943087100983 12.888331711292267 74.83609771728516 12.154996871948242 C 76.52276456356049 11.421664237976074 78.35609805583954 11.054998397827148 80.33609771728516 11.054998397827148 C 82.60943126678467 11.054998397827148 84.75442838668823 11.458332180976868 86.7710952758789 12.264999389648438 C 88.78776216506958 13.071665525436401 90.47443377971649 14.171664714813232 91.83110046386719 15.564998626708984 L 87.76110076904297 20.01999855041504 C 86.7344342470169 19.066665470600128 85.54276287555695 18.278332829475403 84.18609619140625 17.654998779296875 C 82.866095662117 16.994999647140503 81.63776540756226 16.66499900817871 80.5010986328125 16.66499900817871 C 77.8610987663269 16.66499900817871 76.54109954833984 17.581666350364685 76.54109954833984 19.41499900817871 C 76.57776574417949 20.294999718666077 76.98109817504883 20.99166589975357 77.7510986328125 21.5049991607666 C 78.48443180322647 22.018332421779633 80.15276265144348 22.623333275318146 82.75609588623047 23.31999969482422 C 86.23942923545837 24.236666560173035 88.69609844684601 25.446667075157166 90.1260986328125 26.950000762939453 C 91.37276566028595 28.233333945274353 91.99609375 29.93833589553833 91.99609375 32.06500244140625 C 91.99609375 33.82500243186951 91.48276698589325 35.401668548583984 90.45610046386719 36.79500198364258 C 89.46610009670258 38.18833541870117 88.10943377017975 39.288334608078 86.38610076904297 40.095001220703125 C 84.66276776790619 40.86500126123428 82.71943283081055 41.250003814697266 80.55609893798828 41.250003814697266 ZM 99.43656158447266 40.70000076293945 L 99.43656158447266 18.424999237060547 L 93.93656158447266 18.424999237060547 L 93.93656158447266 11.660000801086426 L 99.43656158447266 11.660000801086426 L 99.43656158447266 4.234997749328613 L 106.91655731201172 4.234997749328613 L 106.91655731201172 11.660000801086426 L 113.02156066894531 11.660000801086426 L 113.02156066894531 18.424999237060547 L 106.91655731201172 18.424999237060547 L 106.91655731201172 40.70000076293945 L 99.43656158447266 40.70000076293945 ZM 117.7846450805664 40.70000076293945 L 117.7846450805664 11.660000801086426 L 125.31964874267578 11.660000801086426 L 125.31964874267578 40.70000076293945 L 117.7846450805664 40.70000076293945 ZM 132.61746215820312 40.70000076293945 L 132.61746215820312 11.660000801086426 L 139.87747192382812 11.660000801086426 L 139.9874725341797 15.564998626708984 C 140.9774723649025 14.244998097419739 142.29746389389038 13.163332164287567 143.9474639892578 12.319998741149902 C 145.5974645614624 11.476665318012238 147.32079565525055 11.054998397827148 149.11746215820312 11.054998397827148 C 155.79079580307007 11.054998397827148 159.12747192382812 15.01499891281128 159.12747192382812 22.934999465942383 L 159.12747192382812 40.70000076293945 L 151.64747619628906 40.70000076293945 L 151.64747619628906 23.48499870300293 C 151.64747619628906 19.341665267944336 149.90580344200134 17.343332812190056 146.42247009277344 17.489999771118164 C 144.62580251693726 17.489999771118164 143.1224752664566 18.03999936580658 141.9124755859375 19.139999389648438 C 140.73914206027985 20.239999413490295 140.1524658203125 21.596665740013123 140.1524658203125 23.209999084472656 L 140.1524658203125 40.70000076293945 L 132.61746215820312 40.70000076293945 ZM 179.2664794921875 41.250003814697266 C 176.14981317520142 41.250003814697266 173.41815447807312 40.60833418369293 171.0714874267578 39.32500076293945 C 168.72482061386108 38.041667342185974 166.8914873600006 36.28166890144348 165.5714874267578 34.04500198364258 C 164.28815400600433 31.808335065841675 163.646484375 29.241665840148926 163.646484375 26.344999313354492 C 163.646484375 23.338331937789917 164.26981270313263 20.69833278656006 165.5164794921875 18.424999237060547 C 166.79981291294098 16.114999532699585 168.5414855480194 14.299998998641968 170.74148559570312 12.979999542236328 C 172.97815251350403 11.659999012947083 175.54481554031372 10.999999046325684 178.4414825439453 10.999999046325684 C 181.04481506347656 10.999999046325684 183.37314891815186 11.641665935516357 185.42648315429688 12.925000190734863 C 187.51648235321045 14.171666145324707 189.1298121213913 15.87666630744934 190.2664794921875 18.03999900817871 C 191.43981301784515 20.203332901000977 191.98982322216034 22.678333282470703 191.91648864746094 25.46500015258789 L 191.86148071289062 27.829999923706055 L 170.96148681640625 27.829999923706055 C 171.36482042074203 29.920000314712524 172.35482144355774 31.570002913475037 173.93148803710938 32.78000259399414 C 175.5448213815689 33.99000263214111 177.57981705665588 34.595001220703125 180.03648376464844 34.595001220703125 C 181.35648429393768 34.595001220703125 182.54814791679382 34.39333501458168 183.61148071289062 33.9900016784668 C 184.71148073673248 33.586668610572815 185.8848179578781 32.871666431427 187.13148498535156 31.844999313354492 L 190.76148986816406 36.90500259399414 C 189.18482279777527 38.298336029052734 187.36981558799744 39.38000148534775 185.3164825439453 40.150001525878906 C 183.29981565475464 40.883334934711456 181.28314638137817 41.250003814697266 179.2664794921875 41.250003814697266 Z M 178.49649047851562 17.489999771118164 C 174.35315704345703 17.489999771118164 171.85981291532516 19.35999846458435 171.0164794921875 23.099998474121094 L 184.76649475097656 23.099998474121094 L 184.76649475097656 22.880001068115234 C 184.6564939841628 21.30333399772644 183.99648344516754 20.019999146461487 182.78648376464844 19.029998779296875 C 181.61315023899078 18.003332257270813 180.18315732479095 17.489999771118164 178.49649047851562 17.489999771118164 ZM 208.13804626464844 41.250003814697266 C 205.57137989997864 41.250003814697266 203.2797131538391 40.60833418369293 201.26304626464844 39.32500076293945 C 199.24637961387634 38.005000591278076 197.65137588977814 36.20833468437195 196.47804260253906 33.935001373291016 C 195.3413758277893 31.661668062210083 194.77304077148438 29.076666831970215 194.77304077148438 26.18000030517578 C 194.77304077148438 23.246666431427002 195.3413758277893 20.643332481384277 196.47804260253906 18.369998931884766 C 197.65137588977814 16.096665382385254 199.24637961387634 14.318332076072693 201.26304626464844 13.034998893737793 C 203.2797131538391 11.714998364448547 205.57137989997864 11.054998397827148 208.13804626464844 11.054998397827148 C 209.89804649353027 11.054998397827148 211.56636881828308 11.40333205461502 213.14303588867188 12.099998474121094 C 214.7563692331314 12.796664893627167 216.0580495595932 13.694998979568481 217.0480499267578 14.795000076293945 L 217.0480499267578 0 L 224.58303833007812 0 L 224.58303833007812 40.70000076293945 L 217.43304443359375 40.70000076293945 L 217.3230438232422 37.23500061035156 C 216.36971074342728 38.37166726589203 215.0680456161499 39.32500118017197 213.4180450439453 40.095001220703125 C 211.76804554462433 40.86500126123428 210.00804734230042 41.250003814697266 208.13804626464844 41.250003814697266 Z M 209.7880401611328 34.980003356933594 C 212.02470755577087 34.980003356933594 213.83971464633942 34.17333471775055 215.23304748535156 32.560001373291016 C 216.62638139724731 30.910001277923584 217.3230438232422 28.78333353996277 217.3230438232422 26.18000030517578 C 217.3230438232422 23.53999924659729 216.62638139724731 21.41333258152008 215.23304748535156 19.799999237060547 C 213.83971464633942 18.149999737739563 212.02470755577087 17.32499885559082 209.7880401611328 17.32499885559082 C 207.55137395858765 17.32499885559082 205.73638153076172 18.149999737739563 204.34304809570312 19.799999237060547 C 202.94971466064453 21.41333258152008 202.25303649902344 23.53999924659729 202.25303649902344 26.18000030517578 C 202.25303649902344 28.78333353996277 202.94971466064453 30.910001277923584 204.34304809570312 32.560001373291016 C 205.73638153076172 34.17333471775055 207.55137395858765 34.980003356933594 209.7880401611328 34.980003356933594 Z" fill="rgb(255,255,255)"/>
        </svg>