<svg 
          width="15" 
          height="15" fill="none" 
          xmlns="http://www.w3.org/2000/svg">
          <path d="M 1.5 4.5 L 13.5 4.5 L 13.5 14.25 C 13.5 14.448912374675274 13.42098293825984 14.639678377658129 13.280330657958984 14.780330657958984 C 13.139678377658129 14.92098293825984 12.948912374675274 15 12.75 15 L 2.25 15 C 2.051087625324726 15 1.8603223375976086 14.92098293825984 1.719670057296753 14.780330657958984 C 1.5790177769958973 14.639678377658129 1.5 14.448912374675274 1.5 14.25 L 1.5 4.5 Z M 3.75 2.25 L 3.75 0.75 C 3.75 0.5510876253247261 3.8290177769958973 0.36032215878367424 3.969670057296753 0.2196698784828186 C 4.110322337597609 0.07901759818196297 4.301087625324726 3.3306690738754696e-16 4.5 0 L 10.5 0 C 10.698912374675274 3.3306690738754696e-16 10.889678377658129 0.07901759818196297 11.030330657958984 0.2196698784828186 C 11.17098293825984 0.36032215878367424 11.25 0.5510876253247261 11.25 0.75 L 11.25 2.25 L 15 2.25 L 15 3.75 L 0 3.75 L 0 2.25 L 3.75 2.25 Z M 5.25 1.5 L 5.25 2.25 L 9.75 2.25 L 9.75 1.5 L 5.25 1.5 Z M 5.25 7.5 L 5.25 12 L 6.75 12 L 6.75 7.5 L 5.25 7.5 Z M 8.25 7.5 L 8.25 12 L 9.75 12 L 9.75 7.5 L 8.25 7.5 Z" fill="rgb(255,255,255)"/>
        </svg>