<svg 
          width="60" 
          height="66" fill="none" 
          xmlns="http://www.w3.org/2000/svg">
          <path d="M 59.999917348339764 23.099999999999998 L 59.999917348339764 62.676900100708 C 60.00299226701331 63.110265196859835 59.91981560855014 63.53998823314905 59.75513491982842 63.9415283203125 C 59.590454231106705 64.34306840747595 59.347491740993114 64.70855969935656 59.040128122789 65.0171401977539 C 58.732764504584885 65.32572069615125 58.367018589775654 65.57134509310126 57.963768267209005 65.7399845123291 C 57.560517944642356 65.90862393155695 57.127663873605684 65.99697706134756 56.68992180623123 66 L 3.3099955421085308 66 C 2.4327073759295263 66.0000004404024 1.591302000874836 65.65521005541086 0.9706531505064481 65.04138565063477 C 0.35000430013806005 64.42756124585867 0.0008834724290415463 63.59491407573223 0 62.726398086547846 L 0 3.2736003398895264 C 0 1.5015003383159637 1.4899976391294998 0 3.3266617725581016 0 L 36.66661615731875 0 L 36.66661615731875 19.799999999999997 C 36.66661615731875 20.675214448571204 37.017805793526406 21.514581714570518 37.64292617818617 22.133451747894284 C 38.26804656284594 22.75232178121805 39.11589111814663 23.099999999999998 39.999944898893176 23.099999999999998 L 59.999917348339764 23.099999999999998 Z M 59.999917348339764 16.5 L 43.33327364046761 16.5 L 43.33327364046761 0.00990006923675537 L 59.999917348339764 16.5 Z M 16.666643707872158 16.5 L 16.666643707872158 23.099999999999998 L 26.666629932595452 23.099999999999998 L 26.666629932595452 16.5 L 16.666643707872158 16.5 Z M 16.666643707872158 29.7 L 16.666643707872158 36.3 L 43.33327364046761 36.3 L 43.33327364046761 29.7 L 16.666643707872158 29.7 Z M 16.666643707872158 42.9 L 16.666643707872158 49.5 L 43.33327364046761 49.5 L 43.33327364046761 42.9 L 16.666643707872158 42.9 Z" fill="rgb(75.8364750444889,63.6791680008173,123.24999645352364)"/>
        </svg>