<svg 
          width="23" 
          height="23" fill="none" 
          xmlns="http://www.w3.org/2000/svg">
          <path d="M 22.864459804843037 9.727767637797765 L 22.746188531556633 9.235424075807844 L 11.838066335424221 9.235424075807844 L 11.838066335424221 13.764575140816824 L 18.35551763367463 13.764575140816824 C 17.67886232760172 16.9168073620115 14.538930387355903 18.57609306062971 11.974129565068614 18.57609306062971 C 10.10796347521542 18.57609306062971 8.140795932288055 17.806004558290756 6.838770947765571 16.568214348384313 C 5.451377551845859 15.22818797826767 4.664352888811434 13.401764060769763 4.6512854080286985 11.491785526275635 C 4.6512854080286985 9.584017676966532 5.525233515022286 7.67573652097157 6.796905830044794 6.420490946088518 C 8.068578145067303 5.165245371205465 9.989169167441585 4.462924122810364 11.898771075529721 4.462924122810364 C 14.085733580779161 4.462924122810364 15.653082931136648 5.602142753345625 16.239203512736417 6.1216963188988816 L 19.519908987485778 2.9201786262648444 C 18.557519940928522 2.0905357769557407 15.913697591006958 0 11.793060615201044 0 L 11.793060615201044 0 C 8.613879727829032 0 5.565529130017797 1.1946652020726884 3.337224142272046 3.3735044172831943 C 1.1382252559726957 5.5189732142857135 0 8.621406265667506 0 11.5 C 0 14.378593734332494 1.076996483222345 17.32598251104355 3.2079635550680146 19.48839317049299 C 5.484937301132323 21.794553790773666 8.709647542109398 23 12.030125397735352 23 C 15.051263030207332 23 17.914879843372262 21.8387052161353 19.95583547477158 19.731740883418492 C 21.9622518650094 17.657633662223816 23 14.787767904145376 23 11.779285839625766 C 23 10.512745657137462 22.870216346336303 9.760624779920493 22.864459804843037 9.727767637797765 Z" fill="rgb(255,255,255)"/>
        </svg>