<svg 
          width="51.63094711303711" 
          height="46.46785354614258" fill="none" 
          xmlns="http://www.w3.org/2000/svg">
          <defs>
            <linearGradient id="e1735">
        <stop offset="0%" style="stop-color:rgb(255,73.31250607967377,133.136465549469);stop-opacity:1" />
        <stop offset="100%" style="stop-color:rgb(247.56250709295273,47.449482679367065,107.9965129494667);stop-opacity:1" />
        </linearGradient>
          </defs>
          <path d="M 38.56573628090901 0 C 42.027591183897975 0 45.357784712255246 1.368220058333312 47.80767315523081 3.823271590010336 C 50.26014311232563 6.273160093321697 51.63094711303711 9.577541331566485 51.63094711303711 13.036814959503317 L 51.63094711303711 33.43103858663926 C 51.63094711303711 40.633555787813144 45.770834664946506 46.46785354614258 38.56573628090901 46.46785354614258 L 13.062629471881065 46.46785354614258 C 5.857531087843564 46.46785354614258 0 40.633555787813144 0 33.43103858663926 L 0 13.036814959503317 C 0 5.834297758329437 5.831715023417747 0 13.062629471881065 0 L 38.56573628090901 0 Z M 41.48546521749959 13.42404608760565 C 40.94334028973864 13.39564906614799 40.42703111865909 13.578939669807378 40.03721748580483 13.94035631003832 L 28.39702091217041 23.23392677307129 C 26.899723488976555 24.4756510977237 24.75445755887827 24.4756510977237 23.2339262008667 23.23392677307129 L 11.61696310043335 13.94035631003832 C 10.814101899907133 13.346600392844332 9.704036518512169 13.424046010669542 9.035415744781494 14.12106384155868 C 8.338397931058495 14.818081672447818 8.260951276503176 15.928147004245334 8.85212562648685 16.70261126078882 L 9.190308438403282 17.038212720723397 L 20.936348168032602 26.202705320403766 C 22.38201469335253 27.33858617871014 24.134887246007757 27.95815835330601 25.970367481118046 27.95815835330601 C 27.800684534117615 27.95815835330601 29.58453279424848 27.33858617871014 31.027617805449154 26.202705320403766 L 42.67297956153307 16.883320023286917 L 42.879503153028786 16.676796426704943 C 43.49649295194943 15.928147696670312 43.49649379824659 14.843897737509431 42.85110695933363 14.0952490074748 C 42.492271880590955 13.710598431853942 41.999193143736264 13.475677034836211 41.48546521749959 13.42404608760565 Z" fill="url(#e1735)"/>
        </svg>