<svg 
          width="16" 
          height="16" fill="none" 
          xmlns="http://www.w3.org/2000/svg">
          <path d="M 3.555555582046509 3.59999680519104 L 3.555555582046509 0.89999920129776 C 3.555555582046509 0.6613045632839203 3.6492063254117966 0.43238621950149536 3.8159053325653076 0.2636036276817322 C 3.9826043397188187 0.094821035861969 4.208696648478508 3.996799341700097e-16 4.44444465637207 0 L 15.111111640930176 0 C 15.346859648823738 3.996799341700097e-16 15.572952672839165 0.094821035861969 15.739651679992676 0.2636036276817322 C 15.906350687146187 0.43238621950149536 16 0.6613045632839203 16 0.89999920129776 L 16 11.499987602233887 C 16 11.738682240247726 15.906350687146187 11.967601418495178 15.739651679992676 12.136384010314941 C 15.572952672839165 12.305166602134705 15.346859648823738 12.39998722076416 15.111111640930176 12.39998722076416 L 12.44444465637207 12.39998722076416 L 12.44444465637207 15.099985122680664 C 12.44444465637207 15.596784681081772 12.044444680213928 15.999984741210938 11.549333572387695 15.999984741210938 L 0.895111083984375 15.999984741210938 C 0.7778905481100082 16.00069621379953 0.6616864576935768 15.97794771939516 0.5531753897666931 15.933048248291016 C 0.4446643218398094 15.88814877718687 0.34598515927791595 15.821983560919762 0.2628076374530792 15.738351821899414 C 0.1796301156282425 15.654720082879066 0.11359371617436409 15.555270247161388 0.06849268078804016 15.445718765258789 C 0.023391645401716232 15.33616728335619 0.00011499939137138426 15.218672886490822 0 15.099985122680664 L 0.0026666852645576 4.499996185302734 C 0.0026666852645576 4.003196626901627 0.4026668667793274 3.59999680519104 0.8977779746055603 3.59999680519104 L 3.555555582046509 3.59999680519104 Z M 5.333333492279053 3.59999680519104 L 12.44444465637207 3.59999680519104 L 12.44444465637207 10.59998893737793 L 14.222222328186035 10.59998893737793 L 14.222222328186035 1.79999840259552 L 5.333333492279053 1.79999840259552 L 5.333333492279053 3.59999680519104 Z" fill="rgb(255,255,255)"/>
        </svg>