<svg 
          width="16" 
          height="16" fill="none" 
          xmlns="http://www.w3.org/2000/svg">
          <path d="M 8.8 14.319996963501556 C 9.703353214263917 14.135293565217292 10.515206146240235 13.644295760289047 11.098284149169922 12.930025304789485 C 11.68136215209961 12.215754849289922 11.999887147615663 11.322040401069565 12 10.3999980163578 L 12 7.9999984741213845 C 12.001073254458607 7.449454746350336 11.888028383255005 6.904663771693464 11.667999267578125 6.399998779297108 L 4.331999969482422 6.399998779297108 C 4.111970853805542 6.904663771693464 3.998926745541394 7.449454746350336 4 7.9999984741213845 L 4 10.3999980163578 C 4.000112852384336 11.322040401069565 4.3186378479003915 12.215754849289922 4.901715850830079 12.930025304789485 C 5.484793853759766 13.644295760289047 6.296646785736084 14.135293565217292 7.2 14.319996963501556 L 7.2 9.599998168945662 L 8.8 9.599998168945662 L 8.8 14.319996963501556 Z M 2.828799819946289 12.551998033142464 C 2.544922995567322 11.870091272336715 2.399175481870771 11.13863332011541 2.4000000000000004 10.3999980163578 L 0 10.3999980163578 L 0 8.799998321533524 L 2.4000000000000004 8.799998321533524 L 2.4000000000000004 7.9999984741213845 C 2.4000000000000004 7.485598566894804 2.469600057601929 6.987998726272826 2.5992000579833987 6.515198800049057 L 0.8288000106811524 5.492799092712575 L 1.6287998199462892 4.107199076233086 L 3.2448001861572267 5.039999191284334 C 3.2958035469055176 4.95864954187402 3.3488876223564152 4.878623025918384 3.4040000915527346 4.799999084472831 L 12.596000671386719 4.799999084472831 C 12.651200670003892 4.878399067468822 12.704000192880631 4.95919920388237 12.7552001953125 5.039999191284334 L 14.371200561523438 4.107199076233086 L 15.171200561523438 5.492799092712575 L 13.400799560546876 6.515198800049057 C 13.530399560928345 6.987198689041388 13.600000000000001 7.485598566894804 13.600000000000001 7.9999984741213845 L 13.600000000000001 8.799998321533524 L 16 8.799998321533524 L 16 10.3999980163578 L 13.600000000000001 10.3999980163578 C 13.600000000000001 11.162397878189491 13.44800055027008 11.88959815223729 13.171200561523438 12.551998033142464 L 15.171200561523438 13.707198008118056 L 14.371200561523438 15.09279649871893 L 12.350399780273438 13.9263981005863 C 11.825896215438844 14.574700293598118 11.162962436676025 15.097411327855811 10.410194396972656 15.456215008503913 C 9.657426357269287 15.815018689152014 8.833905982971192 16.00081902149344 8 15.999996948242769 C 7.166094017028809 16.00081902149344 6.342573642730713 15.815018689152014 5.589805603027344 15.456215008503913 C 4.837037563323975 15.097411327855811 4.174103403091431 14.574700293598118 3.649599838256836 13.9263981005863 L 1.6287998199462892 15.09279649871893 L 0.8288000106811524 13.707198008118056 L 2.828799819946289 12.552797593536836 L 2.828799819946289 12.551998033142464 Z M 4.800000000000001 3.199999389648554 C 4.800000000000001 2.351306752909326 5.137141752243042 1.537374441647636 5.7372581481933596 0.9372581601604156 C 6.337374544143677 0.3371418786731951 7.151307201385498 1.0658139003522818e-15 8 0 C 8.848692798614502 7.105426002348545e-16 9.662625455856324 0.3371418786731951 10.262741851806641 0.9372581601604156 C 10.862858247756959 1.537374441647636 11.2 2.351306752909326 11.200000000000001 3.199999389648554 L 4.800000000000001 3.199999389648554 Z" fill="rgb(255,255,255)"/>
        </svg>