<svg 
          width="16" 
          height="16" fill="none" 
          xmlns="http://www.w3.org/2000/svg">
          <path d="M 12.626563581826987 11.512849205653204 L 16 14.885498422310702 L 14.885498422310702 16 L 11.512849205653204 12.626563581826987 C 10.257941824831514 13.632546557467494 8.697057364869217 14.179703391626193 7.088707582992766 14.177415165985533 C 3.17574104825872 14.177415165985533 0 11.001674117726813 0 7.088707582992766 C 0 3.17574104825872 3.17574104825872 0 7.088707582992766 0 C 11.001674117726813 0 14.177415165985533 3.17574104825872 14.177415165985533 7.088707582992766 C 14.179703391626193 8.697057364869217 13.632546557467494 10.257941824831514 12.626563581826987 11.512849205653204 Z M 11.0465690163718 10.928424190447181 C 12.046165744603059 9.900471494648174 12.604404968500084 8.52253993423337 12.602146814209362 7.088707582992766 C 12.602146814209366 4.042138566620966 10.134489022275812 1.5752683517761703 7.088707582992766 1.5752683517761703 C 4.042138566620966 1.5752683517761703 1.5752683517761703 4.042138566620966 1.5752683517761703 7.088707582992766 C 1.5752683517761703 10.134489022275812 4.042138566620966 12.602146814209362 7.088707582992766 12.602146814209362 C 8.52253993423337 12.604404968500084 9.900471494648174 12.046165744603059 10.928424190447181 11.0465690163718 L 11.0465690163718 10.928424190447181 L 11.0465690163718 10.928424190447181 Z" fill="rgb(255,255,255)"/>
        </svg>