<svg 
          width="23" 
          height="20" fill="none" 
          xmlns="http://www.w3.org/2000/svg">
          <path d="M 18.174311995506287 20 C 20.09481194615364 20 21.5625 18.35000004087176 21.5625 16.42857142857143 L 21.5625 5.714285714285714 L 1.4375 5.714285714285714 L 1.4375 16.42857142857143 C 1.4375 18.35000004087176 2.905187711119652 20 4.825687661767006 20 L 18.174311995506287 20 Z M 7.90625 8.571428571428571 L 15.09375 8.571428571428571 C 15.284374359063804 8.571428571428571 15.46719177858904 8.646683597138951 15.601983547210693 8.780638149806432 C 15.736775315832347 8.914592702473913 15.8125 9.096273928880692 15.8125 9.285714285714286 C 15.8125 9.475154642547881 15.736775315832347 9.65683586895466 15.601983547210693 9.790790421622141 C 15.46719177858904 9.924744974289622 15.284374359063804 10 15.09375 10 L 7.90625 10 C 7.715625640936196 10 7.532808906864375 9.924744974289622 7.398017138242722 9.790790421622141 C 7.263225369621068 9.65683586895466 7.1875 9.475154642547881 7.1875 9.285714285714286 C 7.1875 9.096273928880692 7.263225369621068 8.914592702473913 7.398017138242722 8.780638149806432 C 7.532808906864375 8.646683597138951 7.715625640936196 8.571428571428571 7.90625 8.571428571428571 L 7.90625 8.571428571428571 Z M 1.1500000171363354 0 C 0.8450010512024164 3.1720657846433045e-16 0.5524940453469753 0.12040778994560242 0.3368272027000785 0.3347350869859968 C 0.12116036005318165 0.5490623840263912 3.191891195797325e-16 0.8397525123187474 0 1.1428570747375488 L 2.393918396847994e-16 2.857142857142857 C 3.9898639947466563e-16 3.1602474195616588 0.12116036005318165 3.450937718153 0.3368272027000785 3.6652650151933943 C 0.5524940453469753 3.8795923122337888 0.8450010512024164 3.999999931880406 1.1500000171363354 3.999999931880406 L 21.849999725818634 3.999999931880406 C 22.154998691752553 3.999999931880406 22.447505461983383 3.8795923122337888 22.66317230463028 3.6652650151933943 C 22.878839147277176 3.450937718153 23 3.1602474195616588 23 2.857142857142857 L 23 1.1428570747375488 C 23 0.8397525123187474 22.878839147277176 0.5490623840263912 22.66317230463028 0.3347350869859968 C 22.447505461983383 0.12040778994560242 22.154998691752553 0 21.849999725818634 0 L 1.1500000171363354 0 Z" fill="rgb(70.00000342726707,53.00000064074993,226.0000017285347)"/>
        </svg>